<svg width="48" height="48" viewBox="0 0 48 48" fill="none" xmlns="http://www.w3.org/2000/svg">
<path fill-rule="evenodd" clip-rule="evenodd" d="M35.3945 8.40055C35.3945 5.86313 37.4515 3.80615 39.9889 3.80615C42.5263 3.80615 44.5833 5.86313 44.5833 8.40055C44.5833 10.938 42.5263 12.9949 39.9889 12.9949C37.4515 12.9949 35.3945 10.938 35.3945 8.40055ZM39.9889 5.30615C38.2799 5.30615 36.8945 6.69156 36.8945 8.40055C36.8945 10.1095 38.2799 11.4949 39.9889 11.4949C41.6979 11.4949 43.0833 10.1095 43.0833 8.40055C43.0833 6.69156 41.6979 5.30615 39.9889 5.30615Z" fill="#304FFF"/>
<path d="M33.6204 18.9931C33.9478 19.2468 34.0076 19.7179 33.7539 20.0453L27.8958 27.6059C27.7734 27.7639 27.5931 27.8664 27.3948 27.8909C27.1966 27.9154 26.9967 27.8598 26.8396 27.7364L20.607 22.8405L15.0827 30.0204C14.8301 30.3487 14.3592 30.4101 14.0309 30.1575C13.7026 29.9049 13.6413 29.434 13.8939 29.1057L19.8801 21.3254C20.0022 21.1667 20.1827 21.0634 20.3814 21.0385C20.58 21.0137 20.7804 21.0693 20.9378 21.1929L27.1725 26.0904L32.5682 19.1266C32.8219 18.7991 33.293 18.7394 33.6204 18.9931Z" fill="#304FFF"/>
<path d="M15.3121 5.49023C12.1145 5.49023 9.46791 6.62779 7.62481 8.61593C5.78766 10.5977 4.80469 13.3632 4.80469 16.5286V32.6933C4.80469 35.8549 5.76717 38.6168 7.59661 40.596C9.43265 42.5823 12.0809 43.7133 15.3121 43.7133H32.5204C35.717 43.7133 38.3635 42.5811 40.207 40.5975C42.0447 38.6201 43.0278 35.8587 43.0278 32.6933V18.6155C43.0278 18.2013 42.692 17.8655 42.2778 17.8655C41.8636 17.8655 41.5278 18.2013 41.5278 18.6155V32.6933C41.5278 35.5508 40.6436 37.9244 39.1083 39.5763C37.5788 41.2221 35.3466 42.2133 32.5204 42.2133H15.3121C12.4472 42.2133 10.2168 41.2208 8.69812 39.5778C7.17287 37.9277 6.30469 35.5547 6.30469 32.6933V16.5286C6.30469 13.671 7.18899 11.2924 8.72484 9.6357C10.2547 7.9854 12.4868 6.99023 15.3121 6.99023H29.8476C30.2618 6.99023 30.5976 6.65445 30.5976 6.24023C30.5976 5.82602 30.2618 5.49023 29.8476 5.49023H15.3121Z" fill="#304FFF"/>
</svg>
