<svg width="48" height="48" viewBox="0 0 48 48" fill="none" xmlns="http://www.w3.org/2000/svg">
<path fill-rule="evenodd" clip-rule="evenodd" d="M30.6187 16.764C30.702 16.4977 30.6306 16.2071 30.4332 16.0097C30.2359 15.8124 29.9453 15.7409 29.6789 15.8243L19.5004 19.0096C19.2658 19.083 19.0821 19.2668 19.0086 19.5014L15.8233 29.6799C15.7399 29.9462 15.8114 30.2369 16.0087 30.4342C16.2061 30.6316 16.4967 30.703 16.7631 30.6197L26.9416 27.4343C27.1762 27.3609 27.3599 27.1771 27.4333 26.9425L30.6187 16.764ZM17.6829 28.7601L20.323 20.3239L28.7591 17.6839L26.119 26.12L17.6829 28.7601Z" fill="#001D38" fill-opacity="0.4"/>
<path fill-rule="evenodd" clip-rule="evenodd" d="M23.222 3.25C12.1918 3.25 3.25 12.1918 3.25 23.222C3.25 34.2522 12.1918 43.1939 23.222 43.1939C34.2522 43.1939 43.1939 34.2522 43.1939 23.222C43.1939 12.1918 34.2522 3.25 23.222 3.25ZM4.75 23.222C4.75 13.0202 13.0202 4.75 23.222 4.75C33.4238 4.75 41.6939 13.0202 41.6939 23.222C41.6939 33.4238 33.4238 41.6939 23.222 41.6939C13.0202 41.6939 4.75 33.4238 4.75 23.222Z" fill="#001D38" fill-opacity="0.4"/>
</svg>
