<svg width="48" height="48" viewBox="0 0 48 48" fill="none" xmlns="http://www.w3.org/2000/svg">
<path d="M14.9609 28.1758C14.5467 28.1758 14.2109 28.5116 14.2109 28.9258C14.2109 29.34 14.5467 29.6758 14.9609 29.6758H32.4309C32.8452 29.6758 33.1809 29.34 33.1809 28.9258C33.1809 28.5116 32.8452 28.1758 32.4309 28.1758H14.9609Z" fill="#001D38" fill-opacity="0.4"/>
<path fill-rule="evenodd" clip-rule="evenodd" d="M14.286 3.75C10.5549 3.75 7.85779 4.85635 6.12215 7.03491C4.41492 9.17782 3.75 12.2233 3.75 15.864V31.464C3.75 35.1894 4.85287 38.2429 6.98 40.3654C9.10691 42.4877 12.1665 43.588 15.9 43.588H31.464C35.189 43.588 38.2423 42.4874 40.3648 40.3648C42.487 38.2427 43.5876 35.1902 43.588 31.4662V31.464L43.644 21.5382L43.644 21.534C43.644 17.8199 42.976 14.8609 41.2436 12.8318C39.488 10.7754 36.778 9.83 33.072 9.83H27.4124C26.2121 9.82813 25.0819 9.26306 24.3594 8.30321L22.5346 5.87684L22.5339 5.8759C21.5316 4.53618 19.9572 3.75233 18.287 3.75H14.286ZM5.25 15.864C5.25 12.3587 5.89908 9.72218 7.29535 7.96959C8.66321 6.25265 10.8591 5.25 14.286 5.25H18.2854C19.4868 5.25183 20.6158 5.81559 21.3334 6.77516L21.3346 6.77679L23.1606 9.20479C24.166 10.5406 25.7395 11.3277 27.411 11.33L33.072 11.33C36.54 11.33 38.741 12.2106 40.1029 13.8057C41.4877 15.4278 42.1437 17.945 42.144 21.5318V21.534L42.088 31.4598L42.088 31.464C42.088 34.895 41.0796 37.5287 39.3042 39.3042C37.5287 41.0796 34.895 42.088 31.464 42.088H15.9C12.4595 42.088 9.81909 41.0793 8.0395 39.3036C6.26012 37.5281 5.25 34.8946 5.25 31.464V15.864Z" fill="#001D38" fill-opacity="0.4"/>
</svg>
