<svg width="290" height="52" viewBox="0 0 290 52" fill="none" xmlns="http://www.w3.org/2000/svg">
<path d="M31.0264 29.7129C34.8787 25.6848 35.7948 20.3103 33.0726 17.7086C30.3503 15.1069 25.0205 16.2632 21.1682 20.2913C17.3158 24.3194 16.3997 29.6939 19.122 32.2956C21.8443 34.8973 27.174 33.741 31.0264 29.7129Z" fill="white"/>
<path fill-rule="evenodd" clip-rule="evenodd" d="M40.7986 36.3701C51.1131 24.2627 54.0274 9.88779 47.1428 3.30811C39.8141 -3.69601 24.1568 0.785543 12.1712 13.3179C0.185573 25.8503 -3.58959 41.6878 3.73914 48.6919C10.0424 54.716 22.5067 52.2437 33.497 43.4604C34.3212 44.0071 35.31 44.3256 36.3733 44.3256C39.2502 44.3256 41.5823 41.9942 41.5823 39.1184C41.5823 38.1096 41.2953 37.1677 40.7986 36.3701ZM49.2196 18.6957C50.705 12.4639 49.7776 7.17702 46.4679 4.01383C43.1581 0.850638 37.833 0.162056 31.6721 1.92546C25.5376 3.68134 18.7717 7.82918 12.8771 13.9926C6.9826 20.1561 3.1415 27.0992 1.66237 33.3043C0.176909 39.5361 1.10428 44.823 4.41406 47.9862C7.72385 51.1494 13.0489 51.8379 19.2098 50.0745C23.5741 48.8253 28.258 46.3655 32.7204 42.8305C31.7599 41.8859 31.1643 40.5716 31.1643 39.1184C31.1643 36.2425 33.4965 33.9112 36.3733 33.9112C37.8816 33.9112 39.2402 34.552 40.1915 35.5762C44.8548 30.0575 47.932 24.097 49.2196 18.6957Z" fill="white"/>
<path d="M71.7865 37.8166H74.19V23.9341H71.7865V37.8166Z" fill="white"/>
<path d="M78.8568 28.6919L78.79 27.5H76.6058V37.8166H78.9235V30.4749C79.3813 29.6295 80.0776 29.2068 81.0123 29.2068C81.6546 29.2068 82.1156 29.3657 82.3953 29.6835C82.6815 29.995 82.8245 30.478 82.8245 31.1328V37.8166H85.1423V30.9993C85.1041 28.5393 84.0104 27.3094 81.8612 27.3094C80.6213 27.3094 79.6198 27.7702 78.8568 28.6919Z" fill="white"/>
<path d="M93.0424 27.5L90.8582 34.8799L88.6454 27.5H86.2418L89.8471 37.8166H91.8597L95.4364 27.5H93.0424Z" fill="white"/>
<path fill-rule="evenodd" clip-rule="evenodd" d="M97.4325 36.6247C98.3482 37.5464 99.5404 38.0072 101.009 38.0072C101.868 38.0072 102.64 37.8388 103.327 37.5019C104.02 37.1587 104.573 36.6788 104.987 36.0622L103.737 34.8703C103.069 35.7285 102.205 36.1575 101.143 36.1575C100.386 36.1575 99.7566 35.9096 99.2543 35.4138C98.7583 34.918 98.4753 34.2442 98.4054 33.3925H105.149V32.4581C105.149 30.8181 104.764 29.55 103.995 28.6537C103.232 27.7575 102.147 27.3094 100.742 27.3094C99.8583 27.3094 99.0572 27.535 98.3386 27.9863C97.6201 28.4376 97.0605 29.0701 96.66 29.8837C96.2657 30.691 96.0686 31.6095 96.0686 32.6392V32.9253C96.0686 34.4635 96.5232 35.6967 97.4325 36.6247ZM99.1875 29.836C99.5817 29.3911 100.097 29.1686 100.733 29.1686C101.375 29.1686 101.877 29.3688 102.24 29.7693C102.602 30.1634 102.809 30.7482 102.86 31.5237V31.6953H98.4435C98.5516 30.9007 98.7996 30.281 99.1875 29.836Z" fill="white"/>
<path d="M111.122 29.5405C111.446 29.5405 111.761 29.5659 112.066 29.6167L112.076 27.4428C111.86 27.3538 111.586 27.3094 111.256 27.3094C110.264 27.3094 109.488 27.7575 108.928 28.6537L108.871 27.5H106.658V37.8166H108.976V30.7609C109.345 29.9473 110.06 29.5405 111.122 29.5405Z" fill="white"/>
<path d="M118.507 34.0694C118.851 34.2856 119.022 34.6002 119.022 35.0134C119.022 35.3884 118.863 35.6935 118.545 35.9287C118.227 36.1575 117.763 36.2719 117.153 36.2719C116.523 36.2719 116.018 36.1257 115.636 35.8333C115.255 35.5346 115.048 35.1119 115.016 34.5652H112.765C112.765 35.1818 112.95 35.7571 113.319 36.291C113.687 36.825 114.202 37.2445 114.864 37.5496C115.525 37.8547 116.278 38.0072 117.124 38.0072C118.37 38.0072 119.378 37.7212 120.148 37.1491C120.917 36.5707 121.302 35.8175 121.302 34.8894C121.302 34.3364 121.175 33.866 120.92 33.4783C120.672 33.0905 120.288 32.76 119.766 32.4867C119.251 32.207 118.539 31.9686 117.63 31.7716C116.72 31.5682 116.116 31.3679 115.817 31.1709C115.519 30.9738 115.369 30.6973 115.369 30.3414C115.369 29.9473 115.528 29.6326 115.846 29.3974C116.17 29.1623 116.587 29.0447 117.096 29.0447C117.642 29.0447 118.081 29.194 118.412 29.4928C118.742 29.7852 118.908 30.1539 118.908 30.5988H121.226C121.226 29.6263 120.844 28.8349 120.081 28.2247C119.324 27.6145 118.329 27.3094 117.096 27.3094C115.938 27.3094 114.985 27.6081 114.234 28.2056C113.484 28.8031 113.109 29.5468 113.109 30.4367C113.109 31.4983 113.687 32.3087 114.845 32.8681C115.372 33.1223 116.03 33.3321 116.819 33.4974C117.607 33.6626 118.17 33.8533 118.507 34.0694Z" fill="white"/>
<path fill-rule="evenodd" clip-rule="evenodd" d="M123.203 29.836C122.802 30.6433 122.602 31.5523 122.602 32.563V32.6774C122.602 34.2919 123.037 35.5854 123.908 36.558C124.786 37.5242 125.953 38.0072 127.409 38.0072C128.363 38.0072 129.202 37.788 129.927 37.3494C130.658 36.9108 131.218 36.291 131.605 35.4901C132 34.6892 132.197 33.7802 132.197 32.7632L132.187 32.2197C132.117 30.7387 131.647 29.55 130.776 28.6537C129.911 27.7575 128.782 27.3094 127.39 27.3094C126.449 27.3094 125.616 27.5287 124.891 27.9672C124.166 28.3995 123.603 29.0224 123.203 29.836ZM125.577 35.2613C125.139 34.6574 124.919 33.8247 124.919 32.7632C124.919 31.5682 125.142 30.6719 125.587 30.0744C126.032 29.4705 126.633 29.1686 127.39 29.1686C128.159 29.1686 128.766 29.4737 129.211 30.0839C129.663 30.6942 129.889 31.5205 129.889 32.563C129.889 33.7389 129.669 34.632 129.231 35.2422C128.798 35.8524 128.191 36.1575 127.409 36.1575C126.627 36.1575 126.016 35.8588 125.577 35.2613Z" fill="white"/>
<path d="M136.081 28.6919L136.015 27.5H133.83V37.8166H136.148V30.4749C136.606 29.6295 137.302 29.2068 138.237 29.2068C138.879 29.2068 139.34 29.3657 139.62 29.6835C139.906 29.995 140.049 30.478 140.049 31.1328V37.8166H142.367V30.9993C142.329 28.5393 141.235 27.3094 139.086 27.3094C137.846 27.3094 136.844 27.7702 136.081 28.6919Z" fill="white"/>
<path d="M154.371 25.8792H158.701V23.9341H147.685V25.8792H151.977V37.8166H154.371V25.8792Z" fill="white"/>
<path fill-rule="evenodd" clip-rule="evenodd" d="M160.125 36.6247C161.041 37.5464 162.233 38.0072 163.702 38.0072C164.56 38.0072 165.333 37.8388 166.02 37.5019C166.713 37.1587 167.266 36.6788 167.679 36.0622L166.43 34.8703C165.762 35.7285 164.897 36.1575 163.835 36.1575C163.079 36.1575 162.449 35.9096 161.947 35.4138C161.451 34.918 161.168 34.2442 161.098 33.3925H167.841V32.4581C167.841 30.8181 167.457 29.55 166.687 28.6537C165.924 27.7575 164.84 27.3094 163.435 27.3094C162.551 27.3094 161.75 27.535 161.031 27.9863C160.313 28.4376 159.753 29.0701 159.353 29.8837C158.958 30.691 158.761 31.6095 158.761 32.6392V32.9253C158.761 34.4635 159.216 35.6967 160.125 36.6247ZM161.88 29.836C162.274 29.3911 162.789 29.1686 163.425 29.1686C164.067 29.1686 164.57 29.3688 164.932 29.7693C165.295 30.1634 165.501 30.7482 165.552 31.5237V31.6953H161.136C161.244 30.9007 161.492 30.281 161.88 29.836Z" fill="white"/>
<path d="M175.036 35.6522C174.654 35.9891 174.174 36.1575 173.595 36.1575C172.832 36.1575 172.247 35.8842 171.84 35.3375C171.44 34.7845 171.239 33.9487 171.239 32.8299V32.4581C171.246 31.3521 171.452 30.5289 171.859 29.9886C172.266 29.4419 172.845 29.1686 173.595 29.1686C174.18 29.1686 174.66 29.3593 175.036 29.7407C175.417 30.1221 175.621 30.6083 175.646 31.1995H177.83C177.792 30.0363 177.385 29.0987 176.609 28.3868C175.84 27.6685 174.842 27.3094 173.614 27.3094C172.165 27.3094 171.02 27.7829 170.181 28.73C169.341 29.6708 168.922 30.9262 168.922 32.4962V32.7346C168.922 34.3809 169.345 35.6713 170.19 36.6057C171.036 37.5401 172.181 38.0072 173.624 38.0072C174.368 38.0072 175.061 37.8452 175.703 37.521C176.345 37.1968 176.854 36.7582 177.229 36.2052C177.604 35.6458 177.805 35.0451 177.83 34.4031H175.646C175.621 34.8989 175.417 35.3153 175.036 35.6522Z" fill="white"/>
<path d="M184.443 27.3094C183.285 27.3094 182.328 27.7479 181.572 28.6251V23.1713H179.254V37.8166H181.572V30.4463C182.03 29.6199 182.723 29.2068 183.651 29.2068C184.249 29.2068 184.7 29.3561 185.005 29.6549C185.317 29.9473 185.473 30.4494 185.473 31.1614V37.8166H187.79V31.0755C187.759 28.5648 186.643 27.3094 184.443 27.3094Z" fill="white"/>
<path d="M192.066 28.6919L191.999 27.5H189.815V37.8166H192.133V30.4749C192.591 29.6295 193.287 29.2068 194.222 29.2068C194.864 29.2068 195.325 29.3657 195.605 29.6835C195.891 29.995 196.034 30.478 196.034 31.1328V37.8166H198.352V30.9993C198.314 28.5393 197.22 27.3094 195.071 27.3094C193.831 27.3094 192.829 27.7702 192.066 28.6919Z" fill="white"/>
<path fill-rule="evenodd" clip-rule="evenodd" d="M200.596 29.836C200.195 30.6433 199.995 31.5523 199.995 32.563V32.6774C199.995 34.2919 200.43 35.5854 201.302 36.558C202.179 37.5242 203.346 38.0072 204.802 38.0072C205.756 38.0072 206.595 37.788 207.32 37.3494C208.051 36.9108 208.611 36.291 208.999 35.4901C209.393 34.6892 209.59 33.7802 209.59 32.7632L209.581 32.2197C209.511 30.7387 209.04 29.55 208.169 28.6537C207.304 27.7575 206.175 27.3094 204.783 27.3094C203.842 27.3094 203.009 27.5287 202.284 27.9672C201.559 28.3995 200.996 29.0224 200.596 29.836ZM202.971 35.2613C202.532 34.6574 202.313 33.8247 202.313 32.7632C202.313 31.5682 202.535 30.6719 202.98 30.0744C203.425 29.4705 204.026 29.1686 204.783 29.1686C205.552 29.1686 206.16 29.4737 206.605 30.0839C207.056 30.6942 207.282 31.5205 207.282 32.563C207.282 33.7389 207.063 34.632 206.624 35.2422C206.191 35.8524 205.584 36.1575 204.802 36.1575C204.02 36.1575 203.409 35.8588 202.971 35.2613Z" fill="white"/>
<path d="M211.405 37.8166H213.723V23.1713H211.405V37.8166Z" fill="white"/>
<path fill-rule="evenodd" clip-rule="evenodd" d="M216.129 29.836C215.728 30.6433 215.528 31.5523 215.528 32.563V32.6774C215.528 34.2919 215.964 35.5854 216.835 36.558C217.712 37.5242 218.879 38.0072 220.335 38.0072C221.289 38.0072 222.128 37.788 222.853 37.3494C223.584 36.9108 224.144 36.291 224.532 35.4901C224.926 34.6892 225.123 33.7802 225.123 32.7632L225.114 32.2197C225.044 30.7387 224.573 29.55 223.702 28.6537C222.837 27.7575 221.709 27.3094 220.316 27.3094C219.375 27.3094 218.542 27.5287 217.817 27.9672C217.092 28.3995 216.529 29.0224 216.129 29.836ZM218.504 35.2613C218.065 34.6574 217.846 33.8247 217.846 32.7632C217.846 31.5682 218.068 30.6719 218.513 30.0744C218.958 29.4705 219.559 29.1686 220.316 29.1686C221.085 29.1686 221.693 29.4737 222.138 30.0839C222.589 30.6942 222.815 31.5205 222.815 32.563C222.815 33.7389 222.596 34.632 222.157 35.2422C221.725 35.8524 221.117 36.1575 220.335 36.1575C219.553 36.1575 218.943 35.8588 218.504 35.2613Z" fill="white"/>
<path fill-rule="evenodd" clip-rule="evenodd" d="M227.51 28.7491C226.76 29.7026 226.385 30.9802 226.385 32.582C226.385 34.2792 226.766 35.6077 227.529 36.5675C228.299 37.5273 229.288 38.0072 230.496 38.0072C231.608 38.0072 232.499 37.6354 233.166 36.8917V37.5877C233.166 38.395 232.944 39.0052 232.499 39.4184C232.054 39.8379 231.446 40.0477 230.677 40.0477C229.634 40.0477 228.757 39.625 228.044 38.7796L226.948 40.1716C227.323 40.6801 227.87 41.0901 228.588 41.4016C229.313 41.7194 230.054 41.8783 230.81 41.8783C232.241 41.8783 233.376 41.4874 234.216 40.7056C235.061 39.9237 235.484 38.8558 235.484 37.5019V27.5H233.395L233.29 28.5393C232.616 27.7193 231.691 27.3094 230.515 27.3094C229.268 27.3094 228.267 27.7893 227.51 28.7491ZM229.323 35.2327C228.903 34.6352 228.693 33.8184 228.693 32.7823C228.693 31.6063 228.903 30.7164 229.323 30.1125C229.749 29.5087 230.343 29.2068 231.106 29.2068C232.041 29.2068 232.728 29.5977 233.166 30.3795V34.918C232.715 35.7189 232.022 36.1194 231.087 36.1194C230.337 36.1194 229.749 35.8238 229.323 35.2327Z" fill="white"/>
<path d="M237.728 37.8166H240.046V27.5H237.728V37.8166Z" fill="white"/>
<path d="M237.919 23.9341C237.696 24.1693 237.585 24.4648 237.585 24.8208C237.585 25.1704 237.696 25.4628 237.919 25.698C238.148 25.9268 238.472 26.0412 238.892 26.0412C239.311 26.0412 239.636 25.9268 239.865 25.698C240.094 25.4628 240.208 25.1704 240.208 24.8208C240.208 24.4648 240.094 24.1693 239.865 23.9341C239.636 23.6989 239.311 23.5813 238.892 23.5813C238.472 23.5813 238.148 23.6989 237.919 23.9341Z" fill="white"/>
<path fill-rule="evenodd" clip-rule="evenodd" d="M243.253 36.6247C244.169 37.5464 245.361 38.0072 246.83 38.0072C247.688 38.0072 248.461 37.8388 249.148 37.5019C249.841 37.1587 250.394 36.6788 250.807 36.0622L249.558 34.8703C248.89 35.7285 248.025 36.1575 246.964 36.1575C246.207 36.1575 245.577 35.9096 245.075 35.4138C244.579 34.918 244.296 34.2442 244.226 33.3925H250.97V32.4581C250.97 30.8181 250.585 29.55 249.815 28.6537C249.052 27.7575 247.968 27.3094 246.563 27.3094C245.679 27.3094 244.878 27.535 244.159 27.9863C243.441 28.4376 242.881 29.0701 242.481 29.8837C242.087 30.691 241.889 31.6095 241.889 32.6392V32.9253C241.889 34.4635 242.344 35.6967 243.253 36.6247ZM245.008 29.836C245.403 29.3911 245.918 29.1686 246.553 29.1686C247.196 29.1686 247.698 29.3688 248.06 29.7693C248.423 30.1634 248.63 30.7482 248.68 31.5237V31.6953H244.264C244.372 30.9007 244.62 30.281 245.008 29.836Z" fill="white"/>
<path d="M257.754 34.0694C258.097 34.2856 258.269 34.6002 258.269 35.0134C258.269 35.3884 258.11 35.6935 257.792 35.9287C257.474 36.1575 257.01 36.2719 256.399 36.2719C255.77 36.2719 255.264 36.1257 254.883 35.8333C254.501 35.5346 254.295 35.1119 254.263 34.5652H252.012C252.012 35.1818 252.196 35.7571 252.565 36.291C252.934 36.825 253.449 37.2445 254.11 37.5496C254.771 37.8547 255.525 38.0072 256.371 38.0072C257.617 38.0072 258.625 37.7212 259.394 37.1491C260.164 36.5707 260.548 35.8175 260.548 34.8894C260.548 34.3364 260.421 33.866 260.167 33.4783C259.919 33.0905 259.534 32.76 259.013 32.4867C258.498 32.207 257.785 31.9686 256.876 31.7716C255.967 31.5682 255.363 31.3679 255.064 31.1709C254.765 30.9738 254.616 30.6973 254.616 30.3414C254.616 29.9473 254.775 29.6326 255.093 29.3974C255.417 29.1623 255.833 29.0447 256.342 29.0447C256.889 29.0447 257.328 29.194 257.658 29.4928C257.989 29.7852 258.154 30.1539 258.154 30.5988H260.472C260.472 29.6263 260.09 28.8349 259.327 28.2247C258.571 27.6145 257.576 27.3094 256.342 27.3094C255.185 27.3094 254.231 27.6081 253.481 28.2056C252.73 28.8031 252.355 29.5468 252.355 30.4367C252.355 31.4983 252.934 32.3087 254.091 32.8681C254.619 33.1223 255.277 33.3321 256.065 33.4974C256.854 33.6626 257.417 33.8533 257.754 34.0694Z" fill="white"/>
<path d="M273.687 32.8299C274.12 33.1605 274.336 33.6308 274.336 34.2411C274.336 34.8004 274.123 35.2517 273.697 35.595C273.277 35.9319 272.648 36.1003 271.808 36.1003C270.836 36.1003 270.088 35.8842 269.567 35.452C269.046 35.0197 268.785 34.4095 268.785 33.6213H266.372C266.372 34.4921 266.604 35.2549 267.068 35.9096C267.539 36.5643 268.194 37.0792 269.033 37.4542C269.879 37.8229 270.804 38.0072 271.808 38.0072C273.328 38.0072 274.53 37.6672 275.414 36.987C276.304 36.3005 276.749 35.3789 276.749 34.222C276.749 33.5101 276.596 32.8903 276.291 32.3627C275.986 31.8288 275.506 31.3584 274.851 30.9516C274.196 30.5384 273.328 30.1729 272.247 29.8551C271.166 29.5309 270.39 29.2004 269.92 28.8635C269.449 28.5203 269.214 28.0944 269.214 27.5859C269.214 26.982 269.43 26.5116 269.863 26.1747C270.301 25.8378 270.915 25.6694 271.703 25.6694C272.549 25.6694 273.198 25.876 273.649 26.2891C274.107 26.696 274.336 27.2617 274.336 27.9863H276.74C276.74 27.1854 276.523 26.4576 276.091 25.8029C275.659 25.1418 275.064 24.6333 274.307 24.2773C273.551 23.9214 272.689 23.7434 271.723 23.7434C270.266 23.7434 269.081 24.1057 268.165 24.8303C267.256 25.555 266.801 26.4767 266.801 27.5954C266.801 28.873 267.434 29.9091 268.699 30.7037C269.36 31.1169 270.251 31.4919 271.37 31.8288C272.489 32.1657 273.261 32.4994 273.687 32.8299Z" fill="white"/>
<path fill-rule="evenodd" clip-rule="evenodd" d="M279.842 37.8166L280.968 34.5843H286.347L287.482 37.8166H290L284.745 23.9341H282.579L277.334 37.8166H279.842ZM283.657 26.8803L285.67 32.6392H281.645L283.657 26.8803Z" fill="white"/>
</svg>
