<svg width="18" height="18" viewBox="0 0 18 18" fill="none" xmlns="http://www.w3.org/2000/svg">
<path d="M1.73337 3.69153C1.68306 3.76031 1.63347 3.83008 1.58487 3.90057L4.3899 6.70545H0.295971C0.229622 6.95796 0.175472 7.21534 0.130859 7.47625H5.5184L1.73337 3.69153Z" fill="white"/>
<path d="M3.63867 16.229C3.70715 16.28 3.77753 16.3286 3.84741 16.3775L6.47893 13.7463V17.6394C6.73175 17.7133 6.98852 17.7772 7.24973 17.8285V12.618L3.63867 16.229Z" fill="white"/>
<path d="M0.199219 10.8866C0.255079 11.1478 0.32101 11.405 0.399025 11.6574H4.3891L1.73542 14.3111C2.02403 14.7054 2.34407 15.0755 2.69181 15.4177L7.22282 10.8866H0.199219Z" fill="white"/>
<path d="M6.47981 0.360278V4.61563L3.63682 1.77283C3.24488 2.06429 2.87852 2.38786 2.53906 2.73815L7.25046 7.44955V0.171265C6.9894 0.222869 6.73263 0.286824 6.47981 0.360278Z" fill="white"/>
<path d="M12.6239 11.2137C12.6341 11.1051 12.6433 10.9962 12.6521 10.8867H12.2969L12.6239 11.2137Z" fill="white"/>
<path d="M11.431 4.61523V1.96368C11.2039 1.50882 10.9469 1.11803 10.6602 0.807373V5.74384L12.2081 4.1959C12.1848 4.09926 12.1603 4.0046 12.1359 3.91025L11.431 4.61523Z" fill="white"/>
<path d="M10.6855 7.47607H12.6779C12.6388 6.86077 12.5766 6.2554 12.49 5.67175L10.6855 7.47607Z" fill="white"/>
<path d="M10.6602 17.1927C10.9469 16.8817 11.2039 16.4912 11.431 16.0363V13.7466L12.0579 14.3736C12.2017 13.8695 12.3224 13.3311 12.4199 12.7676L10.6602 11.0081L10.6602 17.1927Z" fill="white"/>
</svg>
