<svg width="24" height="24" viewBox="0 0 24 24" fill="none" xmlns="http://www.w3.org/2000/svg">
<path d="M0.666016 2.72C0.666016 1.21833 1.88435 0 3.38602 0C4.88768 0 6.10602 1.21833 6.10602 2.72C6.10602 4.22167 4.88768 5.46834 3.38602 5.46834C1.88435 5.46834 0.666016 4.22167 0.666016 2.72Z" fill="#001D38" fill-opacity="0.4"/>
<path d="M23.3327 22.6383V14.365C23.3327 10.285 22.4543 7.16833 17.6943 7.16833C15.3994 7.16833 13.8694 8.415 13.246 9.605H13.1894V7.53666H8.68435V22.6667H13.3877V15.1583C13.3877 13.175 13.756 11.2767 16.1927 11.2767C18.601 11.2767 18.6293 13.515 18.6293 15.2717V22.6383H23.3327Z" fill="#001D38" fill-opacity="0.4"/>
<path d="M1.03436 7.53667H5.73769V22.6667H1.03436V7.53667Z" fill="#001D38" fill-opacity="0.4"/>
</svg>
