<svg width="18" height="18" viewBox="0 0 18 18" fill="none" xmlns="http://www.w3.org/2000/svg">
<path d="M9.00001 0.75C7.36832 0.75 5.77326 1.23385 4.41655 2.14038C3.05985 3.0469 2.00242 4.33537 1.378 5.84286C0.753575 7.35035 0.590197 9.00915 0.908525 10.6095C1.22685 12.2098 2.01259 13.6798 3.16638 14.8336C4.32016 15.9874 5.79017 16.7731 7.39052 17.0915C8.99086 17.4098 10.6497 17.2464 12.1572 16.622C13.6646 15.9976 14.9531 14.9402 15.8596 13.5835C16.7662 12.2267 17.25 10.6317 17.25 9C17.2474 6.81276 16.3774 4.71583 14.8308 3.16922C13.2842 1.6226 11.1873 0.75258 9.00001 0.75ZM15.7058 8.25H12.7275C12.6968 6.34417 12.2738 4.46511 11.4848 2.73C12.6221 3.18189 13.6154 3.93402 14.3588 4.90617C15.1021 5.87832 15.5677 7.03402 15.7058 8.25ZM9.00001 15.75C8.13901 15.75 6.91426 13.437 6.76501 9.75H11.235C11.0858 13.437 9.86101 15.75 9.00001 15.75ZM6.76501 8.25C6.91501 4.563 8.13901 2.25 9.00001 2.25C9.86101 2.25 11.0858 4.563 11.235 8.25H6.76501ZM6.51526 2.73C5.72625 4.46511 5.30321 6.34417 5.27251 8.25H2.29426C2.43233 7.03402 2.89788 5.87832 3.64125 4.90617C4.38463 3.93402 5.37795 3.18189 6.51526 2.73ZM2.29426 9.75H5.27251C5.30321 11.6558 5.72625 13.5349 6.51526 15.27C5.37795 14.8181 4.38463 14.066 3.64125 13.0938C2.89788 12.1217 2.43233 10.966 2.29426 9.75ZM11.4848 15.27C12.2738 13.5349 12.6968 11.6558 12.7275 9.75H15.7058C15.5677 10.966 15.1021 12.1217 14.3588 13.0938C13.6154 14.066 12.6221 14.8181 11.4848 15.27Z" fill="#001D38"/>
</svg>
