<svg width="48" height="48" viewBox="0 0 48 48" fill="none" xmlns="http://www.w3.org/2000/svg">
<path fill-rule="evenodd" clip-rule="evenodd" d="M36.38 9.91023H31.7404C31.7354 7.06028 29.4216 4.74951 26.5704 4.74951H21.4104C18.5593 4.74951 16.2455 7.06028 16.2404 9.91023H11.62C7.82899 9.91023 4.75 12.9628 4.75 16.7602V23.6602C4.75 23.9266 4.89126 24.1729 5.12112 24.3075C9.99542 27.1607 16.3293 28.907 23.2383 29.024V33.3533C23.2383 33.7675 23.5741 34.1033 23.9883 34.1033C24.4025 34.1033 24.7383 33.7675 24.7383 33.3533V29.0237C31.6418 28.9042 37.9882 27.1587 42.8589 24.3075C43.0887 24.1729 43.23 23.9266 43.23 23.6602V16.7802C43.23 12.9892 40.1774 9.91023 36.38 9.91023ZM30.2404 9.91023H17.7405C17.7455 7.88871 19.3877 6.24951 21.4104 6.24951H26.5704C28.5931 6.24951 30.2354 7.88871 30.2404 9.91023ZM6.25 16.7602C6.25 13.7976 8.65101 11.4102 11.62 11.4102H36.38C39.3426 11.4102 41.73 13.8112 41.73 16.7802V23.2262C36.9939 25.8983 30.7931 27.5229 24.0256 27.5302C24.0132 27.5296 24.0008 27.5293 23.9883 27.5293C23.9757 27.5293 23.9631 27.5296 23.9507 27.5302C17.1773 27.5255 10.9892 25.9006 6.25 23.2263V16.7602Z" fill="#001D38" fill-opacity="0.4"/>
<path d="M6.29692 30.9095C6.2658 30.4965 5.90574 30.1869 5.4927 30.218C5.07966 30.2491 4.77004 30.6092 4.80115 31.0222L5.17915 36.0402C5.46474 39.813 8.60846 42.7299 12.391 42.7299H35.589C39.3716 42.7299 42.5153 39.8133 42.8009 36.0405L43.1789 31.0222C43.21 30.6092 42.9004 30.2491 42.4874 30.218C42.0743 30.1869 41.7143 30.4965 41.6832 30.9095L41.3052 35.9273C41.0786 38.9183 38.5864 41.2299 35.589 41.2299H12.391C9.3937 41.2299 6.90146 38.9186 6.67492 35.9275L6.29692 30.9095Z" fill="#001D38" fill-opacity="0.4"/>
</svg>
